<svg width="28" height="28" viewBox="0 0 28 28" fill="none" xmlns="http://www.w3.org/2000/svg">
<rect width="28" height="28" rx="14" fill="#34C759"/>
<rect width="28" height="28" rx="14" fill="white" fill-opacity="0.9"/>
<path d="M20.0675 13.1922C20.0095 13.2503 19.9406 13.2964 19.8647 13.3279C19.7888 13.3593 19.7075 13.3755 19.6253 13.3755C19.5432 13.3755 19.4619 13.3593 19.386 13.3279C19.3101 13.2964 19.2412 13.2503 19.1832 13.1922L14.6253 8.6336V20.875C14.6253 21.0408 14.5595 21.1997 14.4423 21.3169C14.3251 21.4342 14.1661 21.5 14.0003 21.5C13.8346 21.5 13.6756 21.4342 13.5584 21.3169C13.4412 21.1997 13.3753 21.0408 13.3753 20.875V8.6336L8.81753 13.1922C8.70026 13.3095 8.5412 13.3754 8.37535 13.3754C8.2095 13.3754 8.05044 13.3095 7.93316 13.1922C7.81588 13.0749 7.75 12.9159 7.75 12.75C7.75 12.5842 7.81588 12.4251 7.93316 12.3078L13.5582 6.68282C13.6162 6.62471 13.6851 6.57861 13.761 6.54715C13.8369 6.5157 13.9182 6.49951 14.0003 6.49951C14.0825 6.49951 14.1638 6.5157 14.2397 6.54715C14.3156 6.57861 14.3845 6.62471 14.4425 6.68282L20.0675 12.3078C20.1256 12.3659 20.1717 12.4348 20.2032 12.5107C20.2347 12.5865 20.2508 12.6679 20.2508 12.75C20.2508 12.8321 20.2347 12.9135 20.2032 12.9893C20.1717 13.0652 20.1256 13.1341 20.0675 13.1922Z" fill="#34C759"/>
</svg>
