<svg width="20" height="20" viewBox="0 0 20 20" fill="none" xmlns="http://www.w3.org/2000/svg">
<path d="M17.5009 5.55469C17.3538 5.63088 17.1824 5.64553 17.0245 5.59543C16.8666 5.54533 16.735 5.43457 16.6587 5.2875C16.0622 4.10898 15.1592 3.11289 14.0447 2.40391C13.9752 2.3601 13.9151 2.30304 13.8677 2.23599C13.8202 2.16893 13.7865 2.0932 13.7684 2.01311C13.7502 1.93302 13.7481 1.85014 13.7619 1.76921C13.7758 1.68827 13.8055 1.61087 13.8493 1.54141C13.8932 1.47195 13.9502 1.4118 14.0173 1.3644C14.0843 1.31699 14.1601 1.28326 14.2401 1.26512C14.3202 1.24699 14.4031 1.2448 14.4841 1.2587C14.565 1.27259 14.6424 1.30229 14.7118 1.3461C16.0108 2.17777 17.0655 3.3395 17.7681 4.7125C17.8443 4.85963 17.8589 5.03098 17.8088 5.1889C17.7587 5.34683 17.648 5.47839 17.5009 5.55469ZM2.79075 5.625C2.90526 5.62495 3.01755 5.59345 3.11536 5.53393C3.21318 5.47442 3.29277 5.38917 3.34544 5.2875C3.94201 4.10898 4.84499 3.11289 5.9595 2.40391C6.09978 2.31543 6.19916 2.17486 6.23579 2.01311C6.27242 1.85136 6.24329 1.68168 6.15482 1.54141C6.06634 1.40113 5.92577 1.30175 5.76402 1.26512C5.60227 1.2285 5.43259 1.25762 5.29232 1.3461C3.99341 2.17777 2.93871 3.3395 2.23607 4.7125C2.18672 4.80775 2.16272 4.9141 2.16638 5.02131C2.17004 5.12852 2.20123 5.23298 2.25695 5.32465C2.31267 5.41632 2.39105 5.4921 2.48454 5.5447C2.57803 5.5973 2.68348 5.62496 2.79075 5.625ZM17.3298 13.7453C17.4405 13.9352 17.4992 14.1509 17.5 14.3707C17.5008 14.5905 17.4435 14.8066 17.3341 14.9973C17.2247 15.1879 17.0669 15.3463 16.8768 15.4565C16.6866 15.5667 16.4707 15.6248 16.2509 15.625H13.0634C12.92 16.3314 12.5367 16.9665 11.9786 17.4227C11.4204 17.8789 10.7218 18.1281 10.0009 18.1281C9.28006 18.1281 8.58138 17.8789 8.02325 17.4227C7.46512 16.9665 7.08186 16.3314 6.93841 15.625H3.75091C3.53124 15.6246 3.31556 15.5663 3.1256 15.4559C2.93564 15.3456 2.77811 15.1872 2.66888 14.9966C2.55964 14.806 2.50256 14.59 2.50339 14.3703C2.50421 14.1506 2.56291 13.9351 2.67357 13.7453C3.37747 12.5305 3.75091 10.8031 3.75091 8.75C3.75091 7.0924 4.40939 5.50269 5.58149 4.33059C6.7536 3.15848 8.34331 2.5 10.0009 2.5C11.6585 2.5 13.2482 3.15848 14.4203 4.33059C15.5924 5.50269 16.2509 7.0924 16.2509 8.75C16.2509 10.8023 16.6243 12.5297 17.3298 13.7453ZM11.7681 15.625H8.23372C8.36321 15.9902 8.60264 16.3063 8.91909 16.5298C9.23554 16.7533 9.61347 16.8734 10.0009 16.8734C10.3884 16.8734 10.7663 16.7533 11.0827 16.5298C11.3992 16.3063 11.6386 15.9902 11.7681 15.625ZM16.2509 14.375C15.4197 12.9477 15.0009 11.0555 15.0009 8.75C15.0009 7.42392 14.4741 6.15215 13.5364 5.21447C12.5988 4.27679 11.327 3.75 10.0009 3.75C8.67483 3.75 7.40306 4.27679 6.46538 5.21447C5.52769 6.15215 5.00091 7.42392 5.00091 8.75C5.00091 11.0563 4.5806 12.9484 3.75091 14.375H16.2509Z" fill="currentColor"/>
</svg>
