<svg width="40" height="40" viewBox="0 0 40 40" fill="none" xmlns="http://www.w3.org/2000/svg">
<path d="M27.1318 19.1767C27.3518 19.15 27.5601 19.1467 27.7534 19.1767C27.8634 18.92 27.8834 18.4783 27.7851 17.9967C27.6351 17.2817 27.4334 16.85 27.0168 16.92C26.5984 16.9867 26.5818 17.5033 26.7334 18.2183C26.8168 18.6183 26.9668 18.9617 27.1318 19.1767ZM23.5501 19.7417C23.8501 19.8717 24.0334 19.9567 24.1018 19.885C24.1501 19.8383 24.1368 19.745 24.0651 19.6283C23.8722 19.3521 23.6037 19.1374 23.2918 19.01C22.9585 18.8712 22.595 18.8207 22.2365 18.8633C21.878 18.9059 21.5365 19.0403 21.2451 19.2533C21.0468 19.4 20.8584 19.6017 20.8818 19.725C20.8934 19.7633 20.9201 19.795 20.9901 19.8083C21.1551 19.8267 21.7301 19.535 22.3951 19.495C22.8651 19.4617 23.2501 19.6083 23.5501 19.7417ZM22.9484 20.0833C22.5618 20.145 22.3468 20.2717 22.2101 20.395C22.0918 20.4983 22.0218 20.6083 22.0218 20.69L22.0518 20.76L22.1134 20.7833C22.2018 20.7833 22.3984 20.7067 22.3984 20.7067C22.9384 20.515 23.2968 20.5367 23.6518 20.5767C23.8468 20.6 23.9384 20.61 23.9818 20.5433C23.9934 20.5233 24.0118 20.485 23.9701 20.42C23.8768 20.2683 23.4851 20.02 22.9484 20.0833ZM25.9218 21.3433C26.1868 21.4733 26.4768 21.42 26.5718 21.2283C26.6701 21.0367 26.5318 20.775 26.2668 20.6467C26.0034 20.515 25.7118 20.565 25.6168 20.7567C25.5218 20.9483 25.6601 21.2133 25.9218 21.3433ZM27.6184 19.8583C27.4051 19.855 27.2284 20.0883 27.2218 20.385C27.2168 20.68 27.3884 20.92 27.6034 20.9217C27.8184 20.925 27.9951 20.69 28.0001 20.3967C28.0051 20.1033 27.8351 19.8633 27.6184 19.8583ZM13.2118 25.1633C13.1584 25.0967 13.0701 25.115 12.9851 25.1383C12.9251 25.15 12.8584 25.1667 12.7868 25.165C12.7149 25.1664 12.6439 25.1503 12.5797 25.1181C12.5155 25.0859 12.4601 25.0385 12.4184 24.98C12.3201 24.83 12.3251 24.605 12.4351 24.35L12.4851 24.235C12.6584 23.85 12.9434 23.2033 12.6218 22.5883C12.5166 22.3713 12.3595 22.1835 12.1645 22.0416C11.9694 21.8997 11.7423 21.8082 11.5034 21.775C11.2775 21.7461 11.048 21.7714 10.8339 21.8488C10.6197 21.9262 10.427 22.0534 10.2718 22.22C9.79842 22.7417 9.72676 23.455 9.81676 23.7083C9.85176 23.8017 9.90509 23.8267 9.94176 23.8317C10.0218 23.8433 10.1401 23.7833 10.2151 23.5817L10.2384 23.5183C10.2718 23.4117 10.3334 23.2117 10.4351 23.055C10.5604 22.8634 10.7567 22.7294 10.9808 22.6825C11.2049 22.6356 11.4385 22.6797 11.6301 22.805C11.9634 23.0233 12.0884 23.43 11.9468 23.8183C11.8734 24.02 11.7551 24.4033 11.7801 24.7183C11.8334 25.3567 12.2301 25.6133 12.5801 25.645C12.9234 25.6567 13.1634 25.465 13.2251 25.3233C13.2601 25.235 13.2301 25.1833 13.2118 25.1633Z" fill="#171717"/>
<path d="M33.0354 23.995C33.0204 23.9466 32.9337 23.6349 32.8187 23.2616L32.5787 22.6216C33.0471 21.9166 33.0554 21.29 32.9937 20.9333C32.9234 20.4745 32.7058 20.051 32.3737 19.7266C32.0037 19.34 31.2454 18.94 30.182 18.6416L29.6237 18.4866C29.6204 18.4616 29.5937 17.1699 29.572 16.6149C29.5537 16.2149 29.5204 15.5883 29.3254 14.9716C29.092 14.1349 28.6904 13.4083 28.1854 12.9366C29.577 11.4966 30.4437 9.90828 30.442 8.54662C30.437 5.92828 27.2204 5.13162 23.2554 6.77495L22.417 7.13162C22.4137 7.12828 20.8987 5.64162 20.877 5.62328C16.3537 1.67995 2.22371 17.3899 6.74371 21.2049L7.73205 22.0399C7.46506 22.7551 7.37028 23.523 7.45538 24.2816C7.56371 25.3333 8.10371 26.3383 8.98038 27.1166C9.81371 27.8533 10.912 28.3233 11.9737 28.3216C13.732 32.375 17.7487 34.8583 22.4587 35C27.512 35.15 31.752 32.7783 33.532 28.5183C33.647 28.2199 34.1404 26.8733 34.1404 25.6849C34.1387 24.4883 33.4637 23.9933 33.0354 23.995ZM12.3604 27.1816C12.2064 27.2091 12.0501 27.2208 11.8937 27.2166C10.367 27.1733 8.71871 25.7999 8.55538 24.1716C8.37371 22.3716 9.29371 20.985 10.9237 20.6583C11.117 20.6166 11.3537 20.595 11.607 20.6066C12.5204 20.66 13.8637 21.3599 14.172 23.3483C14.4454 25.1066 14.012 26.9016 12.3604 27.1816ZM10.6587 19.5783C9.6678 19.7614 8.78721 20.3234 8.20371 21.145C7.87538 20.8716 7.26705 20.345 7.16038 20.1383C6.28705 18.4816 8.11205 15.2583 9.38871 13.4383C12.537 8.94162 17.4737 5.53995 19.7604 6.15328C20.1304 6.25995 21.3604 7.68828 21.3604 7.68828C21.3604 7.68828 19.077 8.95328 16.957 10.7199C14.1054 12.92 11.947 16.1133 10.6587 19.5783ZM26.677 26.5083C26.6943 26.5011 26.7085 26.4882 26.7176 26.4719C26.7267 26.4556 26.73 26.4367 26.727 26.4183C26.726 26.4072 26.7228 26.3964 26.7175 26.3865C26.7122 26.3767 26.705 26.368 26.6963 26.361C26.6876 26.354 26.6775 26.3488 26.6668 26.3458C26.656 26.3428 26.6448 26.3419 26.6337 26.3433C26.6337 26.3433 24.2437 26.6966 21.9854 25.8716C22.2304 25.0733 22.887 25.3583 23.8754 25.4399C25.4117 25.5306 26.9524 25.3639 28.4337 24.9466C29.4554 24.6516 30.7987 24.0733 31.842 23.25C32.1954 24.025 32.3187 24.875 32.3187 24.875C32.3187 24.875 32.5904 24.8266 32.8187 24.9666C33.0354 25.0999 33.192 25.375 33.0854 26.0849C32.8637 27.4149 32.3004 28.4933 31.3487 29.4866C30.7566 30.1292 30.0508 30.6569 29.267 31.0433C28.8316 31.2727 28.3778 31.4656 27.9104 31.6199C24.3287 32.7883 20.662 31.5033 19.4804 28.7416C19.3851 28.5301 19.306 28.3117 19.2437 28.0883C18.7404 26.2683 19.167 24.0883 20.502 22.7116C20.587 22.625 20.672 22.5216 20.672 22.3916C20.672 22.285 20.602 22.17 20.5437 22.0866C20.077 21.41 18.4554 20.2549 18.782 18.0199C19.0137 16.4133 20.4187 15.2833 21.7287 15.3499L22.062 15.3699C22.6287 15.4033 23.1237 15.4749 23.5904 15.4966C24.3737 15.5283 25.0754 15.4149 25.9087 14.7216C26.1904 14.485 26.4154 14.2833 26.7954 14.2199C26.8354 14.2099 26.9354 14.1783 27.1337 14.1849C27.3371 14.1931 27.5346 14.2559 27.7054 14.3666C28.372 14.8099 28.467 15.8866 28.5037 16.6749C28.5237 17.1233 28.5787 18.2116 28.5954 18.5216C28.6387 19.235 28.827 19.3366 29.2037 19.4599C29.4187 19.5333 29.617 19.5833 29.9087 19.6683C30.7904 19.9133 31.3171 20.1683 31.6471 20.4899C31.8181 20.6556 31.9284 20.874 31.9604 21.11C32.0687 21.8716 31.372 22.8116 29.5354 23.665C27.5254 24.5966 25.087 24.8333 23.4037 24.6449L22.8137 24.5783C21.4637 24.3983 20.6987 26.1383 21.507 27.33C22.0287 28.0983 23.447 28.5983 24.8687 28.5983C28.1237 28.6016 30.6271 27.2116 31.5604 26.0083L31.6337 25.9033C31.677 25.8333 31.642 25.7983 31.5837 25.835C30.8254 26.3549 27.4454 28.4216 23.832 27.8016C23.832 27.8016 23.392 27.7283 22.992 27.5716C22.6754 27.4516 22.007 27.1416 21.927 26.4583C24.8387 27.3633 26.677 26.5099 26.677 26.5083ZM16.477 13.4216C17.597 12.1283 18.9754 11.0016 20.212 10.3716C20.2537 10.3483 20.2987 10.3966 20.2754 10.4349C20.1237 10.701 20.0072 10.9856 19.9287 11.2816C19.9187 11.3266 19.967 11.3633 20.0054 11.3349C20.7754 10.8116 22.112 10.2499 23.2854 10.1799C23.2968 10.178 23.3085 10.18 23.3186 10.1858C23.3287 10.1915 23.3364 10.2006 23.3406 10.2114C23.3447 10.2222 23.345 10.2341 23.3413 10.2451C23.3376 10.2561 23.3302 10.2655 23.3204 10.2716C23.126 10.4208 22.9522 10.5951 22.8037 10.7899C22.7804 10.8233 22.802 10.8716 22.8437 10.8716C23.667 10.8766 24.8287 11.1633 25.5837 11.5883C25.6337 11.6183 25.597 11.7166 25.542 11.7033C24.3954 11.4416 22.5237 11.2416 20.577 11.7166C18.837 12.1399 17.5104 12.7933 16.5454 13.4983C16.4954 13.5316 16.437 13.4666 16.477 13.4216Z" fill="#171717"/>
</svg>
