<svg width="40" height="40" viewBox="0 0 40 40" fill="none" xmlns="http://www.w3.org/2000/svg">
<path d="M17.2911 23.0562C17.177 22.8848 17.0223 22.7442 16.8408 22.6469C16.6592 22.5497 16.4564 22.4988 16.2505 22.4988C16.0445 22.4988 15.8418 22.5497 15.6602 22.6469C15.4787 22.7442 15.324 22.8848 15.2099 23.0562L11.952 27.9453L10.427 25.5734C10.3139 25.3973 10.1583 25.2525 9.97454 25.1521C9.79081 25.0518 9.58482 24.9992 9.37549 24.9992C9.16615 24.9992 8.96016 25.0518 8.77643 25.1521C8.5927 25.2525 8.4371 25.3973 8.32392 25.5734L2.69892 34.3234C2.57737 34.5123 2.50893 34.7304 2.50082 34.9548C2.4927 35.1793 2.5452 35.4017 2.6528 35.5989C2.7604 35.796 2.91912 35.9605 3.11228 36.0751C3.30544 36.1897 3.5259 36.2501 3.75049 36.25H23.7505C23.9768 36.2501 24.199 36.1888 24.3932 36.0726C24.5875 35.9563 24.7465 35.7895 24.8533 35.59C24.9601 35.3904 25.0108 35.1656 24.9998 34.9395C24.9889 34.7134 24.9167 34.4945 24.7911 34.3062L17.2911 23.0562ZM6.03955 33.75L9.37549 28.5609L10.8802 30.9047C10.9924 31.0794 11.1464 31.2234 11.3282 31.3237C11.51 31.424 11.714 31.4774 11.9216 31.4791C12.1293 31.4808 12.3341 31.4307 12.5175 31.3334C12.701 31.2362 12.8573 31.0947 12.9724 30.9219L16.2536 26.0047L21.4145 33.75H6.03955ZM33.3833 12.8656L24.6333 4.11563C24.3991 3.88165 24.0816 3.75015 23.7505 3.75H8.75049C8.08744 3.75 7.45156 4.01339 6.98272 4.48223C6.51388 4.95107 6.25049 5.58696 6.25049 6.25V21.25C6.25049 21.5815 6.38218 21.8995 6.6166 22.1339C6.85102 22.3683 7.16897 22.5 7.50049 22.5C7.83201 22.5 8.14995 22.3683 8.38437 22.1339C8.61879 21.8995 8.75049 21.5815 8.75049 21.25V6.25H22.5005V13.75C22.5005 14.0815 22.6322 14.3995 22.8666 14.6339C23.101 14.8683 23.419 15 23.7505 15H31.2505V33.75H30.0005C29.669 33.75 29.351 33.8817 29.1166 34.1161C28.8822 34.3505 28.7505 34.6685 28.7505 35C28.7505 35.3315 28.8822 35.6495 29.1166 35.8839C29.351 36.1183 29.669 36.25 30.0005 36.25H31.2505C31.9135 36.25 32.5494 35.9866 33.0183 35.5178C33.4871 35.0489 33.7505 34.413 33.7505 33.75V13.75C33.7506 13.5858 33.7184 13.4232 33.6557 13.2714C33.5929 13.1197 33.5009 12.9818 33.3849 12.8656H33.3833ZM25.0005 8.01719L29.4833 12.5H25.0005V8.01719Z" fill="#171717"/>
</svg>
