<svg width="80" height="80" viewBox="0 0 80 80" fill="none" xmlns="http://www.w3.org/2000/svg">
<rect x="0.5" y="0.5" width="79" height="79" rx="39.5" fill="#F9FAFB"/>
<rect x="0.5" y="0.5" width="79" height="79" rx="39.5" stroke="#EAECF0"/>
<path d="M38.25 59.25C38.25 59.7141 38.0656 60.1592 37.7374 60.4874C37.4092 60.8156 36.9641 61 36.5 61H22.5C22.0359 61 21.5908 60.8156 21.2626 60.4874C20.9344 60.1592 20.75 59.7141 20.75 59.25V20.75C20.75 20.2859 20.9344 19.8408 21.2626 19.5126C21.5908 19.1844 22.0359 19 22.5 19H36.5C36.9641 19 37.4092 19.1844 37.7374 19.5126C38.0656 19.8408 38.25 20.2859 38.25 20.75C38.25 21.2141 38.0656 21.6592 37.7374 21.9874C37.4092 22.3156 36.9641 22.5 36.5 22.5H24.25V57.5H36.5C36.9641 57.5 37.4092 57.6844 37.7374 58.0126C38.0656 58.3408 38.25 58.7859 38.25 59.25ZM62.2381 38.7619L53.4881 30.0119C53.2434 29.7669 52.9314 29.6 52.5918 29.5323C52.2521 29.4647 51.9001 29.4993 51.5801 29.6319C51.2602 29.7645 50.9868 29.989 50.7945 30.277C50.6022 30.5651 50.4997 30.9037 50.5 31.25V38.25H36.5C36.0359 38.25 35.5908 38.4344 35.2626 38.7626C34.9344 39.0908 34.75 39.5359 34.75 40C34.75 40.4641 34.9344 40.9093 35.2626 41.2374C35.5908 41.5656 36.0359 41.75 36.5 41.75H50.5V48.75C50.4997 49.0963 50.6022 49.4349 50.7945 49.723C50.9868 50.011 51.2602 50.2355 51.5801 50.3681C51.9001 50.5007 52.2521 50.5353 52.5918 50.4677C52.9314 50.4 53.2434 50.2331 53.4881 49.9881L62.2381 41.2381C62.4008 41.0756 62.5299 40.8826 62.618 40.6701C62.706 40.4577 62.7514 40.23 62.7514 40C62.7514 39.77 62.706 39.5423 62.618 39.3299C62.5299 39.1174 62.4008 38.9244 62.2381 38.7619Z" fill="#171717"/>
</svg>
