<svg width="20" height="20" viewBox="0 0 20 20" fill="none" xmlns="http://www.w3.org/2000/svg">
<path d="M9.99942 6.2499C9.25774 6.2499 8.53271 6.46984 7.91603 6.88189C7.29934 7.29395 6.8187 7.87962 6.53487 8.56484C6.25104 9.25006 6.17678 10.0041 6.32147 10.7315C6.46617 11.4589 6.82332 12.1271 7.34777 12.6516C7.87221 13.176 8.5404 13.5332 9.26783 13.6778C9.99526 13.8225 10.7493 13.7483 11.4345 13.4645C12.1197 13.1806 12.7054 12.7 13.1174 12.0833C13.5295 11.4666 13.7494 10.7416 13.7494 9.9999C13.7484 9.00566 13.353 8.05243 12.6499 7.3494C11.9469 6.64636 10.9937 6.25094 9.99942 6.2499ZM9.99942 12.4999C9.50496 12.4999 9.02161 12.3533 8.61049 12.0786C8.19937 11.8039 7.87894 11.4134 7.68972 10.9566C7.5005 10.4998 7.45099 9.99713 7.54745 9.51218C7.64392 9.02723 7.88202 8.58177 8.23165 8.23214C8.58128 7.88251 9.02674 7.6444 9.51169 7.54794C9.99664 7.45148 10.4993 7.50099 10.9561 7.6902C11.4129 7.87942 11.8034 8.19986 12.0781 8.61098C12.3528 9.0221 12.4994 9.50545 12.4994 9.9999C12.4994 10.6629 12.236 11.2988 11.7672 11.7677C11.2983 12.2365 10.6625 12.4999 9.99942 12.4999ZM18.5885 8.37569C18.5711 8.28767 18.5349 8.20444 18.4825 8.13165C18.43 8.05885 18.3625 7.9982 18.2846 7.95381L15.9541 6.62568L15.9447 3.99912C15.9444 3.90866 15.9245 3.81935 15.8864 3.73734C15.8482 3.65533 15.7927 3.58258 15.7236 3.52412C14.8783 2.80904 13.9048 2.26105 12.8549 1.90928C12.7722 1.88129 12.6846 1.87094 12.5977 1.87888C12.5107 1.88682 12.4264 1.91287 12.3502 1.95537L9.99942 3.26943L7.64629 1.95303C7.57 1.91029 7.4856 1.88404 7.39853 1.87596C7.31146 1.86789 7.22367 1.87817 7.14082 1.90615C6.09172 2.2605 5.11933 2.81058 4.2752 3.52725C4.20627 3.58562 4.15081 3.65824 4.11264 3.74011C4.07447 3.82197 4.0545 3.91114 4.0541 4.00147L4.04239 6.63037L1.71192 7.9585C1.63395 8.00288 1.56645 8.06354 1.51401 8.13633C1.46157 8.20913 1.42542 8.29236 1.40801 8.38037C1.19473 9.45216 1.19473 10.5555 1.40801 11.6272C1.42542 11.7153 1.46157 11.7985 1.51401 11.8713C1.56645 11.9441 1.63395 12.0047 1.71192 12.0491L4.04239 13.3772L4.05176 16.0038C4.05204 16.0943 4.07196 16.1836 4.11013 16.2656C4.1483 16.3476 4.20382 16.4204 4.27285 16.4788C5.11822 17.1939 6.09173 17.7419 7.1416 18.0937C7.22428 18.1216 7.3119 18.132 7.39883 18.1241C7.48575 18.1161 7.57005 18.0901 7.64629 18.0476L9.99942 16.7304L12.3525 18.0468C12.4457 18.0987 12.5506 18.1256 12.6572 18.1249C12.7255 18.1249 12.7933 18.1138 12.858 18.0921C13.907 17.7382 14.8794 17.1887 15.7236 16.4726C15.7926 16.4142 15.848 16.3416 15.8862 16.2597C15.9244 16.1778 15.9443 16.0887 15.9447 15.9983L15.9564 13.3694L18.2869 12.0413C18.3649 11.9969 18.4324 11.9363 18.4848 11.8635C18.5373 11.7907 18.5734 11.7074 18.5908 11.6194C18.8029 10.5485 18.8021 9.4463 18.5885 8.37569ZM17.4166 11.103L15.1846 12.3726C15.0868 12.4282 15.0058 12.5091 14.9502 12.6069C14.9049 12.6851 14.8572 12.7679 14.8088 12.846C14.7468 12.9445 14.7138 13.0585 14.7135 13.1749L14.7018 15.6944C14.1018 16.1656 13.4334 16.5423 12.7197 16.8116L10.4682 15.5569C10.3747 15.5052 10.2695 15.4783 10.1627 15.4788H10.1479C10.0533 15.4788 9.95801 15.4788 9.86348 15.4788C9.75167 15.476 9.64113 15.503 9.54317 15.5569L7.29004 16.8147C6.57481 16.5475 5.90459 16.1726 5.30254 15.703L5.29395 13.1874C5.29356 13.0708 5.26055 12.9566 5.19864 12.8577C5.1502 12.7796 5.10254 12.7015 5.05801 12.6187C5.00279 12.5193 4.92183 12.4368 4.82364 12.3796L2.58926 11.1069C2.47363 10.3755 2.47363 9.63052 2.58926 8.89912L4.81738 7.62725C4.91518 7.57164 4.99615 7.49067 5.05176 7.39287C5.09707 7.31475 5.14473 7.23194 5.19317 7.15381C5.25517 7.05529 5.2882 6.94131 5.28848 6.8249L5.3002 4.30537C5.90014 3.83424 6.56853 3.4575 7.28223 3.18818L9.53067 4.44287C9.62852 4.49711 9.73914 4.52409 9.85098 4.521C9.94551 4.521 10.0408 4.521 10.1354 4.521C10.2472 4.52379 10.3577 4.49683 10.4557 4.44287L12.7088 3.18506C13.424 3.45231 14.0942 3.8272 14.6963 4.29678L14.7049 6.8124C14.7053 6.92904 14.7383 7.04324 14.8002 7.14209C14.8486 7.22022 14.8963 7.29834 14.9408 7.38115C14.996 7.48046 15.077 7.56305 15.1752 7.62022L17.4096 8.89287C17.5267 9.62483 17.5281 10.3707 17.4135 11.103H17.4166Z" fill="#171717"/>
</svg>
