<svg width="20" height="20" viewBox="0 0 20 20" xmlns="http://www.w3.org/2000/svg">
<path d="M2.94994 5.77807L2.95029 5.77779L7.44161 2.27807C7.44165 2.27803 7.4417 2.27799 7.44175 2.27795C8.61783 1.36334 10.5349 1.31849 11.7556 2.17588L11.7561 2.17622L16.9061 5.78455L16.9069 5.78516C17.3219 6.07456 17.7151 6.54936 18.005 7.10444C18.2949 7.65955 18.4596 8.25315 18.4596 8.75839V14.8251C18.4596 16.8246 16.8328 18.4584 14.8263 18.4584H5.1763C3.17042 18.4584 1.54297 16.8252 1.54297 14.8167V8.64173C1.54297 8.16959 1.69144 7.60566 1.95427 7.07047C2.21702 6.53544 2.57366 6.07073 2.94994 5.77807ZM3.10231 5.97233L3.1023 5.97232L3.09999 5.97414C2.7275 6.26794 2.407 6.71793 2.18088 7.17707C1.95506 7.63558 1.79297 8.16493 1.79297 8.64173V14.8167C1.79297 16.6827 3.30662 18.2084 5.1763 18.2084H14.8263C16.6941 18.2084 18.2096 16.6929 18.2096 14.8251V8.75839C18.2096 8.25303 18.0329 7.69559 17.7832 7.21673C17.5341 6.73932 17.1788 6.27548 16.761 5.98905L11.6135 2.38245C11.0342 1.9759 10.2947 1.79837 9.58733 1.81372C8.88029 1.82906 8.15054 2.03837 7.59398 2.47233C7.59393 2.47236 7.59388 2.4724 7.59383 2.47244L3.10231 5.97233Z" stroke="currentColor"/>
<path d="M10 15.125C9.96985 15.125 9.93857 15.1127 9.91293 15.0871C9.88728 15.0614 9.875 15.0301 9.875 15V12.5C9.875 12.4699 9.88728 12.4386 9.91293 12.4129C9.93857 12.3873 9.96985 12.375 10 12.375C10.0301 12.375 10.0614 12.3873 10.0871 12.4129C10.1127 12.4386 10.125 12.4699 10.125 12.5V15C10.125 15.0301 10.1127 15.0614 10.0871 15.0871C10.0614 15.1127 10.0301 15.125 10 15.125Z" fill="currentColor" stroke="currentColor"/>
</svg>
