<svg width="43" height="40" viewBox="0 0 43 40" fill="none" xmlns="http://www.w3.org/2000/svg">
<g clip-path="url(#clip0_2858_22885)">
<path d="M33.6483 21.1426C28.4835 21.1426 24.2967 25.3497 24.2967 30.5396C24.2967 35.7295 28.4835 39.9365 33.6483 39.9365C38.8132 39.9365 43 35.7293 43 30.5396C43 25.3497 38.8132 21.1426 33.6483 21.1426ZM9.35166 21.1435C4.18696 21.1435 0 25.3497 0 30.5396C0 35.7295 4.18696 39.9365 9.35166 39.9365C14.5167 39.9365 18.7038 35.7293 18.7038 30.5396C18.7038 25.3497 14.5167 21.1435 9.35166 21.1435ZM30.8517 9.39662C30.8517 14.5865 26.6647 18.7941 21.5002 18.7941C16.3351 18.7941 12.1483 14.5865 12.1483 9.39662C12.1483 4.20726 16.335 0 21.5 0C26.6645 0 30.8513 4.20759 30.8513 9.39645" fill="#F06A6A"/>
</g>
<defs>
<clipPath id="clip0_2858_22885">
<rect width="43" height="40" fill="white"/>
</clipPath>
</defs>
</svg>
