<svg width="28" height="28" viewBox="0 0 28 28" fill="none" xmlns="http://www.w3.org/2000/svg">
<g clip-path="url(#clip0_4833_5133)">
<path d="M17.3551 1.35008L14.6692 0.630371L12.4057 9.07788L10.3621 1.45141L7.67612 2.17112L9.88402 10.411L4.38466 4.91162L2.41838 6.8779L8.45049 12.9101L0.938457 10.8972L0.21875 13.5832L8.42659 15.7824C8.33261 15.3771 8.2829 14.9548 8.2829 14.5209C8.2829 11.4493 10.7728 8.95939 13.8444 8.95939C16.9159 8.95939 19.4059 11.4493 19.4059 14.5209C19.4059 14.952 19.3568 15.3717 19.264 15.7747L26.7234 17.7734L27.443 15.0874L19.2026 12.8794L26.7151 10.8664L25.9954 8.18045L17.7552 10.3884L23.2546 4.88905L21.2883 2.92277L15.3399 8.87123L17.3551 1.35008Z" fill="#57A481"/>
<path d="M19.2546 15.8057C19.0244 16.7792 18.5382 17.6539 17.8711 18.3546L23.2751 23.7587L25.2414 21.7924L19.2546 15.8057Z" fill="#57A481"/>
<path d="M17.8171 18.4116C17.142 19.1012 16.2888 19.6158 15.332 19.8809L17.2985 27.2197L19.9844 26.4999L17.8171 18.4116Z" fill="#57A481"/>
<path d="M15.2309 19.9076C14.787 20.0217 14.3217 20.0824 13.8422 20.0824C13.3285 20.0824 12.8311 20.0127 12.3588 19.8823L10.3906 27.2278L13.0766 27.9474L15.2309 19.9076Z" fill="#57A481"/>
<path d="M12.2651 19.8553C11.3229 19.5769 10.4849 19.0558 9.82355 18.3643L4.40625 23.7816L6.37253 25.7479L12.2651 19.8553Z" fill="#57A481"/>
<path d="M9.77792 18.3162C9.12791 17.6203 8.65444 16.7574 8.42907 15.7988L0.945312 17.8041L1.66501 20.4901L9.77792 18.3162Z" fill="#57A481"/>
</g>
<defs>
<clipPath id="clip0_4833_5133">
<rect width="28" height="28" fill="white"/>
</clipPath>
</defs>
</svg>
