<svg width="32" height="20" viewBox="0 0 32 20" fill="none" xmlns="http://www.w3.org/2000/svg">
<g clip-path="url(#clip0_2858_20287)">
<path d="M11.6621 2.66365H20.3059V17.3431H11.6621V2.66365Z" fill="#FF5F00"/>
<path d="M12.2111 10.0034C12.2111 7.0209 13.6929 4.37543 15.9704 2.66365C14.2966 1.41877 12.1837 0.666672 9.87875 0.666672C4.41787 0.666672 0 4.84222 0 10.0034C0 15.1645 4.41787 19.3402 9.87862 19.3402C12.1836 19.3402 14.2965 18.5881 15.9704 17.3431C13.6929 15.6573 12.2111 12.986 12.2111 10.0034Z" fill="#EB001B"/>
<path d="M31.9665 10.0034C31.9665 15.1645 27.5486 19.3402 22.0878 19.3402C19.7828 19.3402 17.67 18.5881 15.9961 17.3431C18.3011 15.6314 19.7555 12.986 19.7555 10.0034C19.7555 7.0209 18.2736 4.37543 15.9961 2.66365C17.6698 1.41877 19.7828 0.666672 22.0878 0.666672C27.5486 0.666672 31.9665 4.86821 31.9665 10.0034Z" fill="#F79E1B"/>
</g>
<defs>
<clipPath id="clip0_2858_20287">
<rect width="32" height="18.6667" fill="white" transform="translate(0 0.666672)"/>
</clipPath>
</defs>
</svg>
