<svg width="32" height="32" viewBox="0 0 32 32" fill="none" xmlns="http://www.w3.org/2000/svg">
<path d="M24.9125 2.40434C23.5191 0.721484 21.0003 0 17.778 0H8.42602C8.10721 1.25086e-05 7.79885 0.120534 7.5564 0.339896C7.31394 0.559259 7.15329 0.863072 7.10332 1.19672L3.20932 27.3654C3.13192 27.8814 3.50902 28.3487 4.00262 28.3487H9.77622L11.2262 18.6034L11.1812 18.9086C11.2845 18.2198 11.8405 17.7117 12.4989 17.7117H15.2425C20.6323 17.7117 24.8526 15.392 26.0854 8.68164C26.122 8.48318 26.1537 8.29002 26.1811 8.1013C26.0255 8.01399 26.0255 8.01399 26.1811 8.1013C26.5482 5.62109 26.1786 3.93282 24.9125 2.40434Z" fill="#27346A"/>
<path d="M13.4354 7.20784C13.5933 7.12821 13.7659 7.08694 13.9407 7.08705H21.2725C22.1407 7.08705 22.9505 7.14692 23.6905 7.27312C23.8976 7.3081 24.1036 7.34987 24.3082 7.39836C24.5983 7.46617 24.8849 7.54917 25.1672 7.64705C25.531 7.77579 25.8698 7.92572 26.1812 8.1013C26.5482 5.62013 26.1786 3.93282 24.9125 2.40435C23.5183 0.721484 21.0003 0 17.778 0H8.42522C7.76672 0 7.20652 0.507974 7.10332 1.19672L3.20932 27.3645C3.13192 27.8813 3.50902 28.348 4.00182 28.348H9.77623L12.7845 8.13394C12.8141 7.93525 12.8888 7.74715 13.0022 7.58583C13.1156 7.42451 13.2642 7.29479 13.4354 7.20784Z" fill="#27346A"/>
<path d="M26.0859 8.68151C24.8531 15.3909 20.6329 17.7115 15.243 17.7115H12.4986C11.8402 17.7115 11.2841 18.2196 11.1818 18.9085L9.37791 31.0256C9.31051 31.4772 9.64011 31.8864 10.0713 31.8864H14.9383C15.2171 31.8863 15.4867 31.7808 15.6987 31.5889C15.9107 31.397 16.051 31.1313 16.0946 30.8395L16.142 30.5767L17.0593 24.4166L17.1184 24.0762C17.162 23.7844 17.3024 23.5187 17.5143 23.3268C17.7262 23.1349 17.9958 23.0294 18.2746 23.0293H19.003C23.7177 23.0293 27.4094 20.9997 28.4882 15.1299C28.9385 12.677 28.7055 10.629 27.5143 9.19044C27.153 8.75473 26.7043 8.39489 26.1816 8.10117C26.1533 8.29083 26.1226 8.48305 26.0859 8.68151Z" fill="#2790C3"/>
<path d="M24.8925 7.55622C24.7003 7.49674 24.5062 7.44408 24.3107 7.39833C24.106 7.35064 23.9 7.30915 23.693 7.27394C22.9522 7.14689 22.143 7.08692 21.274 7.08692H13.9431C13.7681 7.0865 13.5954 7.12812 13.4378 7.20867C13.2664 7.29535 13.1176 7.42499 13.0041 7.58635C12.8907 7.74772 12.8161 7.93596 12.7868 8.13476L11.2286 18.6034L11.1836 18.9086C11.2861 18.2197 11.8421 17.7117 12.5006 17.7117H15.245C20.6348 17.7117 24.855 15.392 26.0878 8.68162C26.1245 8.48316 26.1553 8.29084 26.1836 8.10128C25.8714 7.92665 25.5335 7.77576 25.1696 7.64787C25.0778 7.61562 24.9854 7.58506 24.8926 7.55622" fill="#1F264F"/>
</svg>
