<svg width="40" height="40" viewBox="0 0 40 40" fill="none" xmlns="http://www.w3.org/2000/svg">
<path d="M22.6825 20.405C22.6724 20.933 22.5058 21.4461 22.2038 21.8793C21.9018 22.3124 21.478 22.6462 20.9861 22.8382C20.4941 23.0303 19.9563 23.072 19.4407 22.958C18.925 22.844 18.4549 22.5795 18.0897 22.198C17.7246 21.8165 17.481 21.3351 17.3897 20.815C17.2985 20.2949 17.3637 19.7594 17.5771 19.2764C17.7906 18.7933 18.1426 18.3846 18.5886 18.1019C19.0346 17.8191 19.5546 17.6752 20.0825 17.6883C20.784 17.7143 21.4478 18.0125 21.9331 18.5196C22.4185 19.0268 22.6873 19.703 22.6825 20.405Z" fill="#171717"/>
<path d="M24.6045 12.0549H15.5628C14.6681 12.0549 13.8101 12.4103 13.1775 13.043C12.5449 13.6756 12.1895 14.5336 12.1895 15.4283V24.6733C12.1895 25.1163 12.2767 25.5549 12.4462 25.9642C12.6158 26.3735 12.8642 26.7453 13.1775 27.0586C13.4907 27.3718 13.8626 27.6203 14.2719 27.7898C14.6811 27.9593 15.1198 28.0466 15.5628 28.0466H24.6045C25.0474 28.0466 25.4861 27.9593 25.8954 27.7898C26.3046 27.6203 26.6765 27.3718 26.9898 27.0586C27.303 26.7453 27.5515 26.3735 27.721 25.9642C27.8905 25.5549 27.9778 25.1163 27.9778 24.6733V15.4449C27.9795 15.0007 27.8936 14.5604 27.7249 14.1494C27.5562 13.7384 27.3081 13.3647 26.9947 13.0498C26.6813 12.7349 26.3089 12.4849 25.8987 12.3142C25.4885 12.1435 25.0487 12.0554 24.6045 12.0549ZM20.0828 24.9266C19.1877 24.9468 18.3069 24.6999 17.5529 24.2173C16.7988 23.7347 16.2055 23.0384 15.8489 22.2172C15.4923 21.396 15.3885 20.4872 15.5506 19.6067C15.7128 18.7262 16.1337 17.914 16.7595 17.2738C17.3853 16.6335 18.1876 16.1943 19.0642 16.0121C19.9407 15.8298 20.8517 15.9129 21.6808 16.2507C22.5099 16.5885 23.2196 17.1656 23.7193 17.9085C24.2189 18.6514 24.4859 19.5263 24.4861 20.4216C24.4929 21.0066 24.3844 21.5871 24.1668 22.1302C23.9492 22.6732 23.6267 23.168 23.2178 23.5864C22.8089 24.0047 22.3215 24.3384 21.7836 24.5684C21.2457 24.7983 20.6678 24.9201 20.0828 24.9266ZM24.9761 15.9183C24.8661 15.9183 24.7573 15.8964 24.6559 15.8538C24.5545 15.8112 24.4626 15.7488 24.3856 15.6703C24.3086 15.5917 24.2481 15.4986 24.2075 15.3964C24.167 15.2942 24.1472 15.1849 24.1495 15.0749C24.1495 14.8513 24.2383 14.6368 24.3965 14.4786C24.5546 14.3205 24.7691 14.2316 24.9928 14.2316C25.2165 14.2316 25.431 14.3205 25.5891 14.4786C25.7473 14.6368 25.8361 14.8513 25.8361 15.0749C25.8394 15.194 25.817 15.3124 25.7703 15.4219C25.7236 15.5315 25.6538 15.6297 25.5656 15.7098C25.4775 15.7899 25.373 15.85 25.2595 15.886C25.146 15.9219 25.026 15.933 24.9078 15.9183H24.9761Z" fill="#171717"/>
<path d="M20.0842 3.33322C15.6639 3.31112 11.4159 5.04587 8.27467 8.15584C5.13344 11.2658 3.35629 15.4963 3.33419 19.9165C3.31209 24.3368 5.04684 28.5848 8.15682 31.7261C11.2668 34.8673 15.4973 36.6444 19.9175 36.6665C22.1062 36.6775 24.2756 36.2572 26.3019 35.4298C28.3282 34.6023 30.1717 33.3838 31.727 31.8439C33.2824 30.304 34.5193 28.4728 35.367 26.4549C36.2147 24.437 36.6566 22.2719 36.6675 20.0832C36.6785 17.8945 36.2582 15.7251 35.4307 13.6988C34.6033 11.6725 33.3848 9.82908 31.8449 8.2737C30.305 6.71831 28.4738 5.48147 26.4559 4.63378C24.438 3.78609 22.2729 3.34416 20.0842 3.33322ZM30.2059 24.5032C30.2105 25.2509 30.0667 25.9921 29.7827 26.6839C29.4988 27.3756 29.0804 28.0041 28.5517 28.5329C28.0231 29.0617 27.3947 29.4803 26.7031 29.7645C26.0114 30.0486 25.2702 30.1926 24.5225 30.1882H15.6492C14.9016 30.1924 14.1606 30.0483 13.4691 29.7642C12.7775 29.4801 12.1492 29.0616 11.6205 28.5331C11.0918 28.0045 10.6732 27.3763 10.3889 26.6849C10.1046 25.9934 9.96021 25.2525 9.96419 24.5049V15.6299C9.95955 14.8822 10.1034 14.141 10.3873 13.4492C10.6713 12.7575 11.0897 12.129 11.6183 11.6002C12.147 11.0714 12.7754 10.6528 13.467 10.3686C14.1586 10.0845 14.8998 9.94046 15.6475 9.94488H24.5225C25.2701 9.94046 26.0111 10.0844 26.7027 10.3685C27.3942 10.6525 28.0225 11.071 28.5511 11.5996C29.0797 12.1283 29.4982 12.7565 29.7823 13.4481C30.0663 14.1396 30.2103 14.8806 30.2059 15.6282V24.5032Z" fill="#171717"/>
</svg>
