<svg width="16" height="16" viewBox="0 0 16 16" fill="none" xmlns="http://www.w3.org/2000/svg">
<path d="M14.2906 8.0694L10.495 6.8044C10.2976 6.73846 10.1161 6.63218 9.96203 6.4923C9.80795 6.35242 9.68466 6.18201 9.6 5.9919L8.14937 2.60003C8.14937 2.60003 8.14937 2.59565 8.14937 2.59378C8.04608 2.36208 7.85859 2.17831 7.62487 2.07967C7.39116 1.98103 7.12869 1.9749 6.89062 2.06253L2.15812 3.78065C1.96546 3.85122 1.79906 3.97917 1.68138 4.14725C1.5637 4.31534 1.5004 4.51547 1.5 4.72065V12C1.5 12.2652 1.60536 12.5196 1.79289 12.7071C1.98043 12.8947 2.23478 13 2.5 13H15C15.2652 13 15.5196 12.8947 15.7071 12.7071C15.8946 12.5196 16 12.2652 16 12V10.4413C16 9.91655 15.835 9.40511 15.5282 8.97941C15.2214 8.55372 14.7884 8.23535 14.2906 8.0694ZM7.2325 3.00003L7.67688 4.0394L6.32937 4.53003C6.21884 4.57015 6.12598 4.64794 6.06711 4.74974C6.00825 4.85154 5.98715 4.97083 6.00752 5.08665C6.02789 5.20246 6.08844 5.30739 6.1785 5.38299C6.26857 5.4586 6.38241 5.50003 6.5 5.50003C6.55823 5.49995 6.616 5.48958 6.67063 5.4694L8.07063 4.96065L8.36687 5.65253L7.32937 6.02753C7.21703 6.06637 7.1222 6.14396 7.06189 6.2464C7.00158 6.34883 6.97974 6.4694 7.00028 6.58648C7.02082 6.70356 7.08241 6.8095 7.17398 6.88528C7.26556 6.96107 7.38114 7.00175 7.5 7.00003C7.55823 6.99995 7.616 6.98958 7.67063 6.9694L8.77063 6.5694C8.89679 6.80166 9.05878 7.01258 9.25062 7.1944L8.32938 7.5294C8.2184 7.56921 8.12506 7.64697 8.06585 7.74892C8.00664 7.85087 7.98536 7.97047 8.00577 8.0866C8.02619 8.20272 8.08698 8.30789 8.17741 8.38354C8.26784 8.45919 8.3821 8.50044 8.5 8.50003C8.55817 8.49985 8.61588 8.48971 8.67062 8.47003L10.4206 7.83378L13.975 9.01815C14.2013 9.09381 14.4063 9.22237 14.5729 9.39313C14.7395 9.5639 14.863 9.77196 14.9331 10H2.5V4.72065L7.2325 3.00003ZM2.5 12V11H15V12H2.5Z" fill="black"/>
</svg>
