<svg width="24" height="24" viewBox="0 0 24 24" fill="none" xmlns="http://www.w3.org/2000/svg">
<g clip-path="url(#clip0_4810_5620)">
<path d="M0 12C0 5.37258 5.37258 0 12 0C18.6274 0 24 5.37258 24 12C24 18.6274 18.6274 24 12 24C5.37258 24 0 18.6274 0 12Z" fill="white"/>
<path d="M1 12C1 5.92487 5.92487 1 12 1C18.0751 1 23 5.92487 23 12C23 18.0751 18.0751 23 12 23C5.92487 23 1 18.0751 1 12Z" fill="#57A481"/>
<path d="M1 12C1 5.92487 5.92487 1 12 1C18.0751 1 23 5.92487 23 12C23 18.0751 18.0751 23 12 23C5.92487 23 1 18.0751 1 12Z" stroke="#57A481" stroke-width="2"/>
<path d="M16.8975 9.77299L10.8975 15.773C10.8452 15.8254 10.7831 15.867 10.7147 15.8954C10.6464 15.9238 10.5731 15.9384 10.499 15.9384C10.425 15.9384 10.3517 15.9238 10.2833 15.8954C10.2149 15.867 10.1528 15.8254 10.1006 15.773L7.47559 13.148C7.42326 13.0957 7.38176 13.0335 7.35344 12.9652C7.32512 12.8968 7.31055 12.8235 7.31055 12.7496C7.31055 12.6756 7.32512 12.6023 7.35344 12.5339C7.38176 12.4656 7.42326 12.4034 7.47559 12.3511C7.52791 12.2988 7.59003 12.2573 7.65839 12.229C7.72675 12.2006 7.80003 12.1861 7.87402 12.1861C7.94802 12.1861 8.02129 12.2006 8.08966 12.229C8.15802 12.2573 8.22014 12.2988 8.27246 12.3511L10.4995 14.5781L16.1015 8.97705C16.2072 8.87138 16.3505 8.81201 16.5 8.81201C16.6494 8.81201 16.7927 8.87138 16.8984 8.97705C17.0041 9.08272 17.0634 9.22604 17.0634 9.37549C17.0634 9.52493 17.0041 9.66825 16.8984 9.77393L16.8975 9.77299Z" fill="white"/>
</g>
<defs>
<clipPath id="clip0_4810_5620">
<path d="M0 12C0 5.37258 5.37258 0 12 0C18.6274 0 24 5.37258 24 12C24 18.6274 18.6274 24 12 24C5.37258 24 0 18.6274 0 12Z" fill="white"/>
</clipPath>
</defs>
</svg>
