<svg width="16" height="16" viewBox="0 0 16 16" fill="none" xmlns="http://www.w3.org/2000/svg">
<path d="M15.4735 3.82625L12.2385 2.0625C12.1652 2.02194 12.0829 2.00045 11.9991 2H9.99914C9.86654 2 9.73936 2.05268 9.64559 2.14645C9.55182 2.24021 9.49914 2.36739 9.49914 2.5C9.49914 2.89782 9.34111 3.27936 9.0598 3.56066C8.7785 3.84196 8.39697 4 7.99915 4C7.60132 4 7.21979 3.84196 6.93848 3.56066C6.65718 3.27936 6.49915 2.89782 6.49915 2.5C6.49915 2.36739 6.44647 2.24021 6.3527 2.14645C6.25893 2.05268 6.13175 2 5.99915 2H3.99915C3.91517 2.00035 3.83263 2.02184 3.75915 2.0625L0.52477 3.82625C0.294208 3.9481 0.121374 4.1564 0.0441639 4.40549C-0.0330458 4.65457 -0.00832883 4.92411 0.112895 5.155L1.31727 7.45563C1.40484 7.62103 1.53611 7.75925 1.69678 7.85523C1.85745 7.95121 2.04137 8.00129 2.22852 8H3.49915V13C3.49915 13.2652 3.6045 13.5196 3.79204 13.7071C3.97957 13.8946 4.23393 14 4.49915 14H11.4991C11.7644 14 12.0187 13.8946 12.2063 13.7071C12.3938 13.5196 12.4991 13.2652 12.4991 13V8H13.7704C13.9575 8.00129 14.1415 7.95121 14.3021 7.85523C14.4628 7.75925 14.5941 7.62103 14.6816 7.45563L15.886 5.155C16.0072 4.92403 16.0318 4.65444 15.9545 4.40534C15.8772 4.15624 15.7042 3.94799 15.4735 3.82625ZM2.22852 7C2.21928 7.00044 2.21019 6.99755 2.20289 6.99188L1.00477 4.70375L3.49915 3.3425V7H2.22852ZM11.4991 13H4.49915V3H5.54915C5.6645 3.56447 5.97129 4.07178 6.4176 4.43611C6.86392 4.80044 7.42238 4.99944 7.99852 4.99944C8.57466 4.99944 9.13312 4.80044 9.57944 4.43611C10.0258 4.07178 10.3325 3.56447 10.4479 3H11.4991V13ZM13.796 6.99125C13.7926 6.99437 13.7885 6.99675 13.7841 6.99825C13.7797 6.99976 13.775 7.00035 13.7704 7H12.4991V3.3425L14.9941 4.70375L13.796 6.99125Z" fill="#171717"/>
</svg>
